# xmcd CD database file
#
# Track frame offsets:
#	150
#	24240
#	43082
#	57842
#	68042
#	92352
#	108662
#	129900
#	148170
#	159320
#
# Disc length: 2442 seconds
#
# Revision: 0
# Processed by: cddbd v1.5.2PL0 Copyright (c) Steve Scherf et al.
# Submitted via: cdripper 1,0,39,0213
#
DISCID=7d09880a
DTITLE=Sweet Small Town Band - Feeling Proud
DYEAR=1900
DGENRE=Blues
TTITLE0=Feeling Proud
TTITLE1=I think I Love You too Much
TTITLE2=Big Fat Mama
TTITLE3=Jeannie, Jeannie, Jeannie
TTITLE4=Roadhouse Blues
TTITLE5=Down on the Doctors
TTITLE6=The Wanderer
TTITLE7=Walking by Myself
TTITLE8=The Kids wanna Rock
TTITLE9=Knocking on Heavens Door
EXTD=
EXTT0=
EXTT1=
EXTT2=
EXTT3=
EXTT4=
EXTT5=
EXTT6=
EXTT7=
EXTT8=
EXTT9=
PLAYORDER=
